HIERARCHY
ROOT Root
{
	OFFSET 0.00000 0.00000 0.00000
	CHANNELS 6 Xposition Yposition Zposition Zrotation Xrotation Yrotation
	JOINT Hips
	{
		OFFSET 0 0 0	
		CHANNELS 3 Zrotation Xrotation Yrotation
		JOINT Spine
		{
			OFFSET 0 4 0	
			CHANNELS 3 Zrotation Xrotation Yrotation
			JOINT Spine1
			{
				OFFSET 0 19.4 0	
				CHANNELS 3 Zrotation Xrotation Yrotation
				JOINT Spine2
				{
					OFFSET 0 16.6 0	
					CHANNELS 3 Zrotation Xrotation Yrotation
					JOINT LeftCollar
					{
						OFFSET 0 10 0	
						CHANNELS 3 Zrotation Xrotation Yrotation
						JOINT LeftArm
						{
							OFFSET 15.6 -2 3	
							CHANNELS 3 Zrotation Xrotation Yrotation
							JOINT LeftForeArm
							{
								OFFSET 3.5 -27 -1	
								CHANNELS 3 Zrotation Xrotation Yrotation
								JOINT LeftHand
								{
									OFFSET 1 -27 1	
									CHANNELS 3 Zrotation Xrotation Yrotation
									End Site
									{
										OFFSET 0 -15 0
									}
								}
							}
						}
					}
					JOINT RightCollar
					{
						OFFSET 0 10 0	
						CHANNELS 3 Zrotation Xrotation Yrotation
						JOINT RightArm
						{
							OFFSET -15.6 -2 3	
							CHANNELS 3 Zrotation Xrotation Yrotation
							JOINT RightForeArm
							{
								OFFSET -3.5 -27 -1	
								CHANNELS 3 Zrotation Xrotation Yrotation
								JOINT RightHand
								{
									OFFSET -1 -27 1	
									CHANNELS 3 Zrotation Xrotation Yrotation
									End Site
									{
										OFFSET 0 -15 0
									}
								}
							}
						}
					}
					JOINT Neck
					{
						OFFSET 0 10 0	
						CHANNELS 3 Zrotation Xrotation Yrotation
						JOINT Head
						{
							OFFSET 0 12.7 3	
							CHANNELS 3 Zrotation Xrotation Yrotation
							End Site
							{
								OFFSET 0 12.7 3
							}
						}
					}
				}
			}
		}
	}
	JOINT LeftHip
	{
		OFFSET 0 0 0	
		CHANNELS 3 Zrotation Xrotation Yrotation
		JOINT LeftUpLeg
		{
			OFFSET 8.8 -6 0	
			CHANNELS 3 Zrotation Xrotation Yrotation
			JOINT LeftLeg
			{
				OFFSET 0 -39 2	
				CHANNELS 3 Zrotation Xrotation Yrotation
				JOINT LeftFoot
				{
					OFFSET 0 -43 -2	
					CHANNELS 3 Zrotation Xrotation Yrotation
					JOINT LeftFootFront
					{
						OFFSET 0 -7 8.5	
						CHANNELS 3 Zrotation Xrotation Yrotation
						End Site
						{
							OFFSET 0 -0.5 9
						}
					}
				}
				JOINT LeftHeel
				{
					OFFSET 0 -43 -2	
					CHANNELS 3 Zrotation Xrotation Yrotation
					End Site
					{
						OFFSET 0 -7.5 -5
					}
				}
			}
		}
	}
	JOINT RightHip
	{
		OFFSET 0 0 0	
		CHANNELS 3 Zrotation Xrotation Yrotation
		JOINT RightUpLeg
		{
			OFFSET -8.8 -6 0	
			CHANNELS 3 Zrotation Xrotation Yrotation
			JOINT RightLeg
			{
				OFFSET 0 -39 2	
				CHANNELS 3 Zrotation Xrotation Yrotation
				JOINT RightFoot
				{
					OFFSET 0 -43 -2	
					CHANNELS 3 Zrotation Xrotation Yrotation
					JOINT RightFootFront
					{
						OFFSET 0 -7 8.5	
						CHANNELS 3 Zrotation Xrotation Yrotation
						End Site
						{
							OFFSET 0 -0.5 9
						}
					}
				}
				JOINT RightHeel
				{
					OFFSET 0 -43 -2	
					CHANNELS 3 Zrotation Xrotation Yrotation
					End Site
					{
						OFFSET 0 -7.5 -5
					}
				}
			}
		}
	}
}
MOTION
Frames: 14
Frame Time: 0.025
0 94.782 0 -0 0 -0 -6.0353 4.5008 51.368 -5.5372 -4.1894 7.8423 -5.5372 -4.1894 7.8423 -4.6892 -3.4691 6.6133 -0 0 -0 18.219 -6.1969 -15.063 4.5919 -6.7348 -4.7727 3.9546 1.8864 -34.334 -0 0 -0 19.509 -5.7699 -34.133 -19.989 -13.235 -11.928 -9.0472 -5.225 35.014 11.848 -0.91267 -5.0688 11.848 -0.91267 -5.0688 -6.0353 4.5008 51.368 0.81619 -13.874 -6.1199 4.0438 5.494 -11.484 -5.816 0.24338 -100.41 0 0 -1.3977e-06 -0 0 -0 -6.0353 4.5008 51.368 1.0298 -11.683 -16.072 -11.536 3.7852 5.5644 9.6116 -0.7751 -44.786 -0 0 4.9938e-08 -0 0 -0 
0 94.785 0 -0 0 -0 -5.9964 4.4609 51.372 -5.5272 -4.1831 7.8359 -5.5272 -4.1831 7.8359 -4.6807 -3.4639 6.6078 -0 0 -0 18.208 -6.2039 -15.056 4.5917 -6.7446 -4.7745 3.9464 1.9468 -34.335 -0 0 -0 19.49 -5.7577 -34.129 -19.988 -13.231 -11.926 -9.0514 -5.202 35.035 11.821 -0.89104 -5.0842 11.821 -0.89104 -5.0842 -5.9964 4.4609 51.372 0.83361 -13.834 -6.1177 4.0378 5.4837 -11.501 -5.8272 0.26387 -100.4 -0.0015713 -0.0027019 0.001855 -0 0 -0 -5.9964 4.4609 51.372 1.0395 -11.634 -16.079 -11.529 3.7745 5.559 9.6004 -0.75811 -44.783 -0.017772 -0.022648 0.002042 -0 0 -0 
0 94.788 0 -0 0 -0 -5.934 4.3964 51.379 -5.5126 -4.1671 7.8276 -5.5126 -4.1671 7.8276 -4.6682 -3.4506 6.6007 -0 0 -0 18.186 -6.2302 -15.041 4.5958 -6.747 -4.7801 3.9329 1.9907 -34.346 -0 0 -0 19.455 -5.7651 -34.123 -19.982 -13.215 -11.926 -9.0697 -5.2053 35.059 11.782 -0.86637 -5.1044 11.782 -0.86637 -5.1044 -5.934 4.3964 51.379 0.85774 -13.764 -6.1117 4.0305 5.4595 -11.521 -5.8459 0.30347 -100.39 -0.0019038 -0.0028555 0.0016932 -0 0 -0 -5.934 4.3964 51.379 1.0582 -11.563 -16.091 -11.525 3.767 5.5524 9.5562 -0.73775 -44.777 -0.02725 -0.028258 0.0028637 -0 0 -0 
0 94.791 0 -0 0 -0 -5.8852 4.3427 51.384 -5.4986 -4.1589 7.82 -5.4986 -4.1589 7.82 -4.6564 -3.4439 6.5941 -0 0 -0 18.153 -6.2599 -15.02 4.6124 -6.7383 -4.7905 3.9191 2.0139 -34.364 -0 0 -0 19.428 -5.7751 -34.124 -19.985 -13.2 -11.928 -9.1017 -5.2194 35.087 11.745 -0.84404 -5.1202 11.745 -0.84404 -5.1202 -5.8852 4.3427 51.384 0.88398 -13.708 -6.087 4.0227 5.4165 -11.543 -5.866 0.35796 -100.4 -0.0015047 -0.0024949 0.0012781 -0 0 -0 -5.8852 4.3427 51.384 1.0917 -11.532 -16.094 -11.54 3.7785 5.5449 9.4998 -0.71431 -44.768 -0.029252 -0.016796 0.003028 -0 0 -0 
0 94.795 0 -0 0 -0 -5.8484 4.2995 51.384 -5.4855 -4.1571 7.8135 -5.4855 -4.1571 7.8135 -4.6453 -3.4426 6.5886 -0 0 -0 18.116 -6.2619 -14.995 4.6433 -6.7465 -4.796 3.9083 2.0237 -34.383 -0 0 -0 19.424 -5.7735 -34.131 -20.007 -13.205 -11.933 -9.1498 -5.2286 35.114 11.717 -0.83109 -5.1213 11.717 -0.83109 -5.1213 -5.8484 4.2995 51.384 0.91531 -13.656 -6.0374 4.0119 5.3538 -11.572 -5.8858 0.41982 -100.41 -0.00088549 -0.0022667 0.0016011 -0 0 -0 -5.8484 4.2995 51.384 1.1327 -11.535 -16.08 -11.565 3.813 5.5253 9.4489 -0.68699 -44.752 -0.016333 0.00056458 0.0030822 -0 0 -0 
0 94.798 0 -0 0 -0 -5.812 4.2564 51.381 -5.4718 -4.1548 7.8085 -5.4718 -4.1548 7.8085 -4.6338 -3.4408 6.5844 -0 0 -0 18.078 -6.2521 -14.967 4.6782 -6.7601 -4.7952 3.8983 2.0339 -34.404 -0 0 -0 19.419 -5.7698 -34.14 -20.029 -13.219 -11.94 -9.2635 -5.2821 35.096 11.697 -0.83142 -5.1104 11.697 -0.83142 -5.1104 -5.812 4.2564 51.381 0.95541 -13.589 -5.9682 3.9955 5.2743 -11.606 -5.9048 0.48285 -100.43 2.8608e-06 -0.0015874 0.0023599 -0 0 -0 -5.812 4.2564 51.381 1.1709 -11.556 -16.047 -11.594 3.8781 5.4828 9.4218 -0.66448 -44.724 0.0073626 -0.00018707 0.0030797 -0 0 -0 
0 94.802 0 -0 0 -0 -5.7748 4.2117 51.379 -5.4571 -4.1508 7.8046 -5.4571 -4.1508 7.8046 -4.6214 -3.4376 6.581 -0 0 -0 18.038 -6.2496 -14.938 4.7113 -6.7624 -4.7926 3.8847 2.0536 -34.425 -0 0 -0 19.394 -5.7731 -34.152 -20.037 -13.221 -11.943 -9.3174 -5.3039 35.101 11.681 -0.8438 -5.0978 11.681 -0.8438 -5.0978 -5.7748 4.2117 51.379 0.99913 -13.516 -5.894 3.9752 5.196 -11.632 -5.92 0.53932 -100.46 0.0012214 -0.0013379 0.0029686 -0 0 -0 -5.7748 4.2117 51.379 1.2 -11.593 -15.997 -11.624 3.9692 5.4179 9.4175 -0.66044 -44.687 0.018684 -0.0074729 0.0030147 -0 0 -0 
0 94.805 0 -0 0 -0 -5.7411 4.1692 51.378 -5.4424 -4.1474 7.8007 -5.4424 -4.1474 7.8007 -4.609 -3.4349 6.5776 -0 0 -0 18 -6.253 -14.909 4.7423 -6.7574 -4.7878 3.8632 2.0819 -34.443 -0 0 -0 19.359 -5.7792 -34.167 -20.039 -13.218 -11.942 -9.3639 -5.3325 35.101 11.663 -0.86242 -5.0917 11.663 -0.86242 -5.0917 -5.7411 4.1692 51.378 1.037 -13.458 -5.8249 3.954 5.1399 -11.661 -5.9278 0.58447 -100.49 0.0011809 -0.001058 0.0029466 -0 0 -0 -5.7411 4.1692 51.378 1.2257 -11.637 -15.942 -11.658 4.0629 5.3434 9.4231 -0.66802 -44.648 0.018757 -0.00374 0.0028123 -0 0 -0 
0 94.809 0 -0 0 -0 -5.7133 4.1346 51.38 -5.4292 -4.1466 7.7951 -5.4292 -4.1466 7.7951 -4.5979 -3.4344 6.5728 -0 0 -0 17.97 -6.2586 -14.881 4.7704 -6.747 -4.7795 3.8351 2.1099 -34.454 -0 0 -0 19.327 -5.7845 -34.182 -20.041 -13.218 -11.942 -9.4067 -5.3628 35.098 11.638 -0.87954 -5.0915 11.638 -0.87954 -5.0915 -5.7133 4.1346 51.38 1.0672 -13.419 -5.7708 3.9277 5.1061 -11.702 -5.926 0.61851 -100.5 6.935e-05 -0.0016826 0.0023653 -0 0 -0 -5.7133 4.1346 51.38 1.253 -11.669 -15.892 -11.694 4.1326 5.2718 9.4347 -0.67108 -44.611 0.01332 0.0068189 0.0021809 -0 0 -0 
0 94.812 0 -0 0 -0 -5.6882 4.1089 51.381 -5.4165 -4.1493 7.7867 -5.4165 -4.1493 7.7867 -4.5872 -3.4368 6.5657 -0 0 -0 17.944 -6.2587 -14.856 4.7956 -6.7303 -4.7674 3.8036 2.1314 -34.455 -0 0 -0 19.295 -5.7858 -34.192 -20.041 -13.217 -11.942 -9.4527 -5.3905 35.098 11.606 -0.88794 -5.0931 11.606 -0.88794 -5.0931 -5.6882 4.1089 51.381 1.084 -13.404 -5.7461 3.9021 5.1006 -11.731 -5.9196 0.64305 -100.49 -0.00047592 -0.0024179 0.002916 -0 0 -0 -5.6882 4.1089 51.381 1.2688 -11.683 -15.852 -11.716 4.172 5.2079 9.4498 -0.65793 -44.579 0.0054722 0.01374 0.0017867 -0 0 -0 
0 94.815 0 -0 0 -0 -5.6616 4.0897 51.381 -5.4027 -4.1526 7.7752 -5.4027 -4.1526 7.7751 -4.5755 -3.4397 6.556 -0 0 -0 17.917 -6.2524 -14.832 4.8181 -6.7081 -4.7548 3.7708 2.1455 -34.443 -0 0 -0 19.258 -5.7864 -34.193 -20.036 -13.21 -11.942 -9.5078 -5.4209 35.1 11.566 -0.88419 -5.0987 11.566 -0.88419 -5.0987 -5.6616 4.0897 51.381 1.0804 -13.411 -5.7492 3.8883 5.1259 -11.734 -5.9137 0.66016 -100.48 0.00034498 -0.0014445 0.0045971 -0 0 -0 -5.6616 4.0897 51.381 1.2633 -11.686 -15.821 -11.72 4.1913 5.1548 9.4648 -0.62574 -44.555 -0.0079785 0.015128 0.0025209 -0 0 -0 
0 94.818 0 -0 0 -0 -5.6331 4.0738 51.38 -5.391 -4.1491 7.7651 -5.391 -4.1491 7.7651 -4.5657 -3.437 6.5475 -0 0 -0 17.892 -6.2657 -14.819 4.8382 -6.6811 -4.7485 3.736 2.1557 -34.42 -0 0 -0 19.229 -5.8059 -34.191 -20.037 -13.198 -11.945 -9.5654 -5.4616 35.097 11.515 -0.87338 -5.1256 11.515 -0.87338 -5.1256 -5.6331 4.0738 51.38 1.0615 -13.43 -5.763 3.8858 5.1688 -11.715 -5.9076 0.67275 -100.49 0.0017546 -8.4495e-05 0.0053274 -0 0 -0 -5.6331 4.0738 51.38 1.2457 -11.692 -15.793 -11.719 4.2048 5.1124 9.4743 -0.57527 -44.538 -0.020437 0.012967 0.0030329 -0 0 -0 
0 94.821 0 -0 0 -0 -5.6016 4.0598 51.377 -5.3798 -4.1408 7.757 -5.3798 -4.1408 7.757 -4.5561 -3.4302 6.5405 -0 0 -0 17.868 -6.2962 -14.814 4.854 -6.6597 -4.7575 3.6963 2.1746 -34.386 -0 0 -0 19.215 -5.8271 -34.187 -20.066 -13.192 -11.957 -9.6059 -5.5096 35.089 11.44 -0.84509 -5.1965 11.44 -0.84509 -5.1965 -5.6016 4.0598 51.377 1.0412 -13.447 -5.7691 3.8838 5.2116 -11.671 -5.9011 0.68544 -100.53 0.0036467 -0.0001672 0.0053355 -0 0 -0 -5.6016 4.0598 51.377 1.2384 -11.711 -15.761 -11.738 4.2249 5.0777 9.4771 -0.51493 -44.527 -0.011889 0.0086644 0.0030896 -0 0 -0 
0 94.825 0 -0 0 -0 -5.5679 4.045 51.366 -5.366 -4.1319 7.7521 -5.366 -4.1319 7.7521 -4.5444 -3.4229 6.5363 -0 0 -0 17.845 -6.3329 -14.818 4.8623 -6.6571 -4.7783 3.6543 2.2127 -34.348 -0 0 -0 19.208 -5.8378 -34.183 -20.133 -13.199 -11.988 -9.6109 -5.5456 35.084 11.324 -0.78867 -5.3622 11.324 -0.78867 -5.3622 -5.5679 4.045 51.366 1.0361 -13.447 -5.7566 3.8756 5.2399 -11.579 -5.8995 0.69953 -100.62 0.0033209 -0.00095896 0.0042453 -0 0 -0 -5.5679 4.045 51.366 1.237 -11.735 -15.716 -11.766 4.2526 5.0493 9.4851 -0.46646 -44.524 0.010959 -0.0054233 0.0030432 -0 0 -0 
